<svg viewBox="0 0 24 24" xmlns="http://www.w3.org/2000/svg"><path d="m11.38 7.6a.36.36 0 0 0 -.31-.13c-.21 0-.23.07-.26.13a3.78 3.78 0 0 0 .49 2.33 3.46 3.46 0 0 0 .08-2.33z"/><path d="m6.84 17.6s0 .1.07.18a.28.28 0 0 0 .21 0 4.26 4.26 0 0 0 1.66-1.72c-1.29.65-1.89 1.23-1.94 1.54z"/><path d="m11.56 12.3c-.18.52-.39 1-.57 1.51-.08.15-.15.33-.23.51l.78-.23c.44-.13.88-.23 1.3-.34-.24-.23-.47-.46-.7-.72a7.16 7.16 0 0 1 -.58-.73z"/><path d="m19.41 7.35-4.83-4.83a2 2 0 0 0 -1.41-.59h-7.17a2 2 0 0 0 -2 2v16a2 2 0 0 0 2 2h12a2 2 0 0 0 2-2v-11.17a2 2 0 0 0 -.59-1.41zm-1.71 7.86a1.71 1.71 0 0 1 -1.38.57 4.61 4.61 0 0 1 -2.63-1.25c-.54.11-1.16.26-1.87.47s-1.14.34-1.61.52c-.78 1.48-1.84 2.94-2.83 3.2a1.67 1.67 0 0 1 -.31.05 1.21 1.21 0 0 1 -.7-.26 1 1 0 0 1 -.37-1.07c.18-.88 1.48-1.82 3.61-2.65.21-.41.42-.86.6-1.3.31-.8.57-1.53.78-2.2-.75-1.41-1.38-3.12-1-4.06a1.09 1.09 0 0 1 1.09-.67 1.21 1.21 0 0 1 1.07.54c.52.78.28 2.39-.21 4.08a6.36 6.36 0 0 0 .86 1.22c.41.42.77.81 1.14 1.12 2.13-.39 3.56-.23 4 .49a1 1 0 0 1 -.24 1.2z"/><path d="m14.92 14.3a2.67 2.67 0 0 0 1.4.54.86.86 0 0 0 .7-.28c.26-.31-.6-.47-2.1-.26z"/></svg>