<svg viewBox="0 0 120 120" xmlns="http://www.w3.org/2000/svg"><g fill="#191313"><path d="m60 11.23a50 50 0 0 0 -15.81 97.45c2.5.46 3.42-1.09 3.42-2.41s0-5.13-.07-9.31c-13.91 3-16.84-5.89-16.84-5.89-2.28-5.78-5.56-7.32-5.56-7.32-4.53-3.1.35-3 .35-3 5 .35 7.66 5.15 7.66 5.15 4.46 7.61 11.7 5.4 14.55 4.1a10.68 10.68 0 0 1 3.18-6.69c-11.11-1.24-22.78-5.53-22.78-24.69a19.34 19.34 0 0 1 5.15-13.42c-.52-1.26-2.23-6.34.48-13.23 0 0 4.2-1.34 13.75 5.13a47.26 47.26 0 0 1 25.05 0c9.54-6.47 13.73-5.1 13.73-5.1 2.72 6.89 1 12 .49 13.23a19.29 19.29 0 0 1 5.15 13.39c0 19.21-11.7 23.44-22.83 24.67 1.79 1.56 3.39 4.6 3.39 9.26 0 6.69-.06 12.08-.06 13.72 0 1.33.9 2.89 3.44 2.4a50 50 0 0 0 -15.84-97.44z" fill-rule="evenodd"/><path d="m28.94 83a.63.63 0 0 1 -.86.16c-.36-.17-.57-.51-.45-.76s.5-.32.86-.15.57.5.45.75zm-.62-.45"/><path d="m31 85.28c-.24.22-.7.12-1-.23s-.39-.81-.14-1 .69-.12 1 .23.39.82.14 1zm-.47-.51"/><path d="m32.93 88.16c-.3.22-.8 0-1.11-.43s-.31-1 0-1.19.81 0 1.12.42.31 1 0 1.2zm0 0"/><path d="m35.64 90.94c-.28.31-.86.22-1.29-.19a1 1 0 0 1 -.28-1.28c.27-.3.86-.21 1.29.2s.57 1 .28 1.27zm0 0"/><path d="m39.36 92.56c-.12.39-.68.57-1.25.4s-.93-.63-.82-1 .68-.58 1.25-.4.94.62.82 1zm0 0"/><path d="m43.45 92.86c0 .41-.46.75-1.06.76s-1.08-.32-1.09-.73.47-.75 1.07-.76 1.08.32 1.08.73zm0 0"/><path d="m47.26 92.21c.07.4-.34.82-.93.93s-1.12-.15-1.19-.54.35-.83.93-.94 1.12.14 1.19.55zm0 0"/></g></svg>