<svg viewBox="0 0 120 120" xmlns="http://www.w3.org/2000/svg"><path d="m41.45 100.63c37.73 0 58.37-31.27 58.37-58.38 0-.89 0-1.77-.06-2.65a41.53 41.53 0 0 0 10.24-10.6 40.91 40.91 0 0 1 -11.78 3.23 20.67 20.67 0 0 0 9-11.35 41.29 41.29 0 0 1 -13 5 20.54 20.54 0 0 0 -35 18.71 58.28 58.28 0 0 1 -42.22-21.47 20.52 20.52 0 0 0 6.31 27.38 20.28 20.28 0 0 1 -9.31-2.56v.26a20.53 20.53 0 0 0 16.46 20.11 20.55 20.55 0 0 1 -9.26.35 20.54 20.54 0 0 0 19.16 14.25 41.15 41.15 0 0 1 -25.48 8.8 41.92 41.92 0 0 1 -4.88-.3 58 58 0 0 0 31.45 9.2" fill="#1da1f2"/></svg>