<svg viewBox="0 0 960 120" xmlns="http://www.w3.org/2000/svg"><path d="m0 0h960v120h-960z" fill="#fff"/><path d="m0 63h104.76a9.52 9.52 0 0 0 9.52-9.52v-26.48a9.51 9.51 0 0 1 9.51-9.52h330.57a9.52 9.52 0 0 1 9.52 9.52v25.65a9.51 9.51 0 0 0 9.51 9.52h486.61" fill="none" stroke="#3367d6" stroke-miterlimit="10" stroke-width="4"/><circle cx="28.76" cy="35.08" fill="#3367d6" r="7.88"/><circle cx="57.8" cy="35.08" fill="#3367d6" r="7.88"/><circle cx="86.84" cy="35.08" fill="#3367d6" r="7.88"/><rect fill="#3367d6" height="30.8" opacity=".2" rx="14.61" width="790.42" x="155.66" y="74.86"/><g fill="none" stroke="#3367d6" stroke-linecap="round" stroke-linejoin="round"><path d="m0 118h960" stroke-width="4"/><path d="m32.45 98.41-8.26-8.26 8.13-8.13" stroke-width="2.24"/><path d="m41.18 90.22h-16.99" stroke-width="2.24"/><path d="m79.91 82.02 8.26 8.26-8.13 8.13" stroke-width="2.24"/><path d="m71.19 90.22h16.98" stroke-width="2.24"/></g><path d="m118.89 86.18a9.27 9.27 0 0 0 13.31 12.51 1.17 1.17 0 0 0 .1-1.74 1.15 1.15 0 0 0 -1.49-.11 6.95 6.95 0 1 1 .74-10.47l-2.28 2.29a.59.59 0 0 0 .41 1h6.2a.58.58 0 0 0 .58-.59v-6.21a.57.57 0 0 0 -1-.41l-2.28 2.29a9.28 9.28 0 0 0 -14.29 1.44z" fill="#3367d6"/><text fill="#3367d6" font-family="Roboto-Black, Roboto" font-size="24.8" font-weight="800" letter-spacing=".02em" transform="translate(135.74 51.71)">DEMO</text></svg>