<svg viewBox="0 0 48 48" xmlns="http://www.w3.org/2000/svg"><path d="m0 0 18.61 18.61a3.27 3.27 0 0 1 .2-1.9 4 4 0 0 0 .44-2.65c-.32-1.61.71-.58.71-.58a3.15 3.15 0 0 1 .51 2.72v.1a3.22 3.22 0 0 0 2.35 3.9 3.15 3.15 0 0 1 2.35-.5c-3.79-4.58-3.18-8.11.28-11.57a6.48 6.48 0 0 1 4.37-2 6.08 6.08 0 0 1 3.28-3s1.43.78 2.09 4.54a15.58 15.58 0 0 1 3.38 2.61 15.39 15.39 0 0 1 2.38 3c3.67.73 4.33 2 4.33 2a6.28 6.28 0 0 1 -2.74 3.14 6.6 6.6 0 0 1 -2 4.79 11.87 11.87 0 0 1 -3.65 2.71c-2.15.9-4.48.42-7.74-2.35a3.48 3.48 0 0 1 -1.25 3.23l-.55.55 20.65 20.65v-48z" fill="#25292e"/></svg>