<svg viewBox="0 0 480 80" xmlns="http://www.w3.org/2000/svg"><g fill="#202124"><path d="m55.34 46.14v11.67h-10.76l-2.42 18.56h-13.37l2.43-18.56h-8.71l-2.42 18.56h-13.27l2.51-18.56h-9.33v-11.67h10.76l1.08-8.61h-9.15v-11.53h10.68l2.24-17.26h13.18l-2.24 17.26h8.7l2.33-17.26h13.28l-2.24 17.26h9.15v11.53h-10.59l-1.18 8.61zm-21.52-8.61h-8.7l-1.12 8.61h8.7z"/><path d="m109.09 23.63v52.74h-17.58v-52.74h-14.44v-14.89h46.47v14.89z"/><path d="m156.85 30.36h16.32v46h-16.32v-5.1a17 17 0 0 1 -14.08 6.55 23 23 0 0 1 -9.24-1.81 22.13 22.13 0 0 1 -7.36-5.16 23.88 23.88 0 0 1 -4.89-7.8 26.82 26.82 0 0 1 -1.75-9.78 25.83 25.83 0 0 1 1.71-9.37 24 24 0 0 1 4.76-7.79 22.52 22.52 0 0 1 7.27-5.25 22.25 22.25 0 0 1 9.33-1.93 18.77 18.77 0 0 1 14.26 6zm-20.45 22.87a10.7 10.7 0 0 0 3 7.54 10 10 0 0 0 3.32 2.23 10.69 10.69 0 0 0 4.17.81 10.39 10.39 0 0 0 4.11-.81 10 10 0 0 0 3.32-2.24 11.49 11.49 0 0 0 2.24-3.32 9.67 9.67 0 0 0 .86-4 10 10 0 0 0 -.86-4.08 11 11 0 0 0 -2.27-3.36 9.86 9.86 0 0 0 -3.29-2.28 10.38 10.38 0 0 0 -4.08-.8 10.68 10.68 0 0 0 -4.17.8 9.86 9.86 0 0 0 -3.35 2.28 10.88 10.88 0 0 0 -2.2 3.27 10 10 0 0 0 -.8 3.96z"/><path d="m198.74 1.92v33a19.06 19.06 0 0 1 14.36-6 22.57 22.57 0 0 1 9.37 1.93 22.14 22.14 0 0 1 7.26 5.2 23.87 23.87 0 0 1 4.71 7.72 27.11 27.11 0 0 1 0 19.06 23.88 23.88 0 0 1 -4.89 7.8 23.23 23.23 0 0 1 -7.4 5.25 22 22 0 0 1 -9.19 1.93q-9 0-14.18-6.55v5.11h-16.27v-74.45zm20.46 51.58a10.52 10.52 0 0 0 -3-7.44 11.25 11.25 0 0 0 -3.32-2.29 9.91 9.91 0 0 0 -4.13-.85 10 10 0 0 0 -7.31 3 11 11 0 0 0 -2.24 3.36 10 10 0 0 0 -.86 4.08 10.1 10.1 0 0 0 3.05 7.31 11.21 11.21 0 0 0 3.32 2.33 9.92 9.92 0 0 0 4.08.86 10.1 10.1 0 0 0 7.31-3 11.69 11.69 0 0 0 2.24-3.32 9.46 9.46 0 0 0 .86-4.04z"/><path d="m259.37 30.36v25.92q0 8.52 8.25 8.52t8.25-8.52v-25.92h16.24v29.06q0 9.33-6.15 14t-18.34 4.67q-12.19 0-18.34-4.67t-6.15-14v-29.06z"/><path d="m317.19 1.92v74.45h-16.19v-74.45z"/><path d="m360.64 30.36h16.36v46h-16.36v-5.1a17 17 0 0 1 -14.09 6.55 23 23 0 0 1 -9.24-1.81 22.19 22.19 0 0 1 -7.31-5.19 23.72 23.72 0 0 1 -4.89-7.8 26.61 26.61 0 0 1 -1.75-9.78 25.83 25.83 0 0 1 1.64-9.37 24 24 0 0 1 4.75-7.76 22.47 22.47 0 0 1 7.25-5.25 22.25 22.25 0 0 1 9.33-1.93 18.79 18.79 0 0 1 14.27 6zm-20.46 22.87a10.62 10.62 0 0 0 .82 4.17 10.74 10.74 0 0 0 2.2 3.37 10 10 0 0 0 3.31 2.23 10.62 10.62 0 0 0 4.17.81 10.46 10.46 0 0 0 4.08-.81 10 10 0 0 0 3.32-2.24 11.69 11.69 0 0 0 2.24-3.32 9.66 9.66 0 0 0 .85-4 10 10 0 0 0 -.85-4.08 11.22 11.22 0 0 0 -2.24-3.36 9.86 9.86 0 0 0 -3.32-2.25 10.45 10.45 0 0 0 -4.08-.8 10.61 10.61 0 0 0 -4.17.8 9.86 9.86 0 0 0 -3.32 2.25 10.88 10.88 0 0 0 -2.2 3.27 9.81 9.81 0 0 0 -.81 3.96z"/><path d="m415.11 42.2a18.9 18.9 0 0 0 -8.79-2.33 6.64 6.64 0 0 0 -3.63.89 2.76 2.76 0 0 0 -1.39 2.42 3.22 3.22 0 0 0 .22 1.31 2.32 2.32 0 0 0 1 .94 8.06 8.06 0 0 0 2.24.8q1.49.36 3.9.9c4.49.9 7.83 2.5 10.05 4.8a12.24 12.24 0 0 1 3.29 8.84 16 16 0 0 1 -1.6 7.23 15.49 15.49 0 0 1 -4.48 5.43 21.57 21.57 0 0 1 -6.92 3.44 31.05 31.05 0 0 1 -8.88 1.21 36.09 36.09 0 0 1 -18.39-5.3l5.92-11.48q6.82 4.7 12.93 4.7a6.36 6.36 0 0 0 3.68-1 3 3 0 0 0 1.43-2.51 4.16 4.16 0 0 0 -.22-1.48 2.43 2.43 0 0 0 -1-1.08 7.43 7.43 0 0 0 -2.1-.89c-.93-.27-2.14-.56-3.64-.86q-7.53-1.52-10.54-4.53t-3-8.29a16.27 16.27 0 0 1 1.44-7 14.26 14.26 0 0 1 4.12-5.25 19.26 19.26 0 0 1 6.5-3.32 28.83 28.83 0 0 1 8.48-1.17 38.52 38.52 0 0 1 14.8 3z"/><path d="m463.68 30.36h16.32v46h-16.32v-5.1a17 17 0 0 1 -14.09 6.55 23 23 0 0 1 -9.24-1.81 22.19 22.19 0 0 1 -7.35-5.19 23.72 23.72 0 0 1 -4.89-7.8 26.61 26.61 0 0 1 -1.75-9.78 26 26 0 0 1 1.7-9.37 24.22 24.22 0 0 1 4.76-7.76 22.47 22.47 0 0 1 7.26-5.25 22.25 22.25 0 0 1 9.33-1.93 18.79 18.79 0 0 1 14.27 6zm-20.46 22.87a10.62 10.62 0 0 0 .78 4.17 10.74 10.74 0 0 0 2.2 3.37 10 10 0 0 0 3.35 2.23 10.62 10.62 0 0 0 4.17.81 10.46 10.46 0 0 0 4.08-.81 10 10 0 0 0 3.32-2.24 11.9 11.9 0 0 0 2.24-3.32 9.66 9.66 0 0 0 .85-4 10 10 0 0 0 -.85-4.08 11.42 11.42 0 0 0 -2.24-3.36 9.86 9.86 0 0 0 -3.32-2.25 10.45 10.45 0 0 0 -4.08-.8 10.61 10.61 0 0 0 -4.17.8 9.86 9.86 0 0 0 -3.32 2.25 10.88 10.88 0 0 0 -2.2 3.27 9.81 9.81 0 0 0 -.81 3.96z"/></g></svg>