<?xml version="1.0" encoding="utf-8"?>
<!-- Generator: Adobe Illustrator 21.1.0, SVG Export Plug-In . SVG Version: 6.00 Build 0)  -->
<svg version="1.1" id="レイヤー_1" xmlns="http://www.w3.org/2000/svg" xmlns:xlink="http://www.w3.org/1999/xlink" x="0px"
	 y="0px" viewBox="0 0 256 256" style="enable-background:new 0 0 256 256;" xml:space="preserve">
<style type="text/css">
	.st0{fill:#FFFFFF;}
</style>
<title>アートボード 2</title>
<path class="st0" d="M187.6,255.7c-8.3,1.6-11.2-3.5-11.2-7.8c0-5.3,0.2-22.9,0.2-44.6c0-15.2-5.2-25.1-11.1-30.1
	c36.3-4,74.4-17.8,74.4-80.2c0-17.7-6.3-32.2-16.8-43.6c1.7-4.1,7.3-20.6-1.6-43c0,0-13.7-4.3-44.8,16.7c-26.7-7.3-54.9-7.3-81.6,0
	C64,2,50.3,6.4,50.3,6.4c-8.9,22.4-3.3,38.9-1.6,43C37.8,61.2,31.8,76.8,32,93c0,62.3,38.1,76.2,74.3,80.3
	c-4.7,4.1-8.9,11.2-10.3,21.7c-9.3,4.1-32.9,11.3-47.5-13.5c0,0-8.6-15.6-25-16.8c0,0-15.9-0.2-1.1,9.9c0,0,10.7,5,18.1,23.8
	c0,0,9.6,31.6,54.9,21.8c0.1,13.6,0.2,23.8,0.2,27.6c0,4.3-3,9.3-11.1,7.8"/>
</svg>
